# xmcd
#
# Track frame offsets:
# 182
# 21932
# 45970
# 63157
# 82382
# 101582
# 119995
# 138445
# 162332
# 172220
#
# Disc length: 2579 seconds
# Revision: 3
# Processed by: cddbd v1.4PL0 Copyright (c) Steve Scherf et al.
# Submitted via: MusicBox 0.2
#
DISCID=8f0a110a
DTITLE=Gidon Kremer, Heinz Hollinger, Academy of St. Martin-in-the
DTITLE=Fields - Bach, Vivaldi: 3 Concertos
DYEAR=1982
DGENRE=Classical
TTITLE0=Bach: Concerto in C minor, BWV 1060 - I  Allegro
TTITLE1=Bach: Concerto in C minor, BWV 1060 - II  Adagio
TTITLE2=Bach: Concerto in C minor, BWV 1060 - III  Allegro
TTITLE3=Bach: Easter Oratorio, Sinfonia - II  Adagio
TTITLE4=Vivaldi: Concerto in G minor, RV 576 - I  Allegro
TTITLE5=Vivaldi: Concerto in G minor, RV 576 - II  Larghetto
TTITLE6=Vivaldi: Concerto in G minor, RV 576 - III  Allegro
TTITLE7=Vivaldi: Concerto in D major, RV 582 - I  Allegro
TTITLE8=Vivaldi: Concerto in D major, RV 582 - II  Largo
TTITLE9=Vivaldi: Concerto in D major, RV 582 - III  Allegro
EXTD=
EXTT0=
EXTT1=
EXTT2=
EXTT3=
EXTT4=
EXTT5=
EXTT6=
EXTT7=
EXTT8=
EXTT9=
PLAYORDER=
